<svg xmlns="http://www.w3.org/2000/svg" viewBox="0 0 52.5 30"><path d="M52.5,1.22a15.08,15.08,0,0,0-1.92.53c-.51.18-1,.38-1.49.6s-.94.45-1.4.7a24.83,24.83,0,0,0-2.33,1.49c-.47.34-.93.7-1.39,1.06-.27.21-.52.45-.79.67-.84.71-1.6,1.49-2.37,2.28-.4.41-.8.84-1.17,1.29l-.8.93c-.28.35-.57.7-.84,1.06s-.6.8-.9,1.21-.76,1.09-1.14,1.64c-.26.39-.55.77-.85,1.14s-.75.88-1.13,1.32c-.6.66-1.25,1.28-1.88,1.91-.27.27-.56.53-.85.78s-.78.66-1.19,1a16.78,16.78,0,0,1-3.7,2.26,11.26,11.26,0,0,1-1.94.63c-.39.09-.78.15-1.17.22a7.27,7.27,0,0,0-2.39.81,3,3,0,0,0-1,1,9.68,9.68,0,0,0-.75,1.47c-.3.7-.53,1.43-.82,2.14a1.84,1.84,0,0,1-.27.52c-.06.07-.11.16-.21.14s-.12-.14-.13-.22a5.09,5.09,0,0,1,0-1.17q0-.46.12-.93c0-.27.09-.55.15-.83.12-.5.24-1,.37-1.51s.29-1.07.45-1.6.38-1.15.59-1.72.4-1.05.62-1.56.55-1.23.85-1.82c.41-.8.85-1.57,1.33-2.33s.89-1.34,1.37-2c.28-.38.58-.76.89-1.12s.79-.9,1.2-1.33.56-.59.85-.87.82-.76,1.23-1.12.78-.67,1.18-1,.83-.65,1.26-1,.93-.64,1.4-.94,1.17-.73,1.76-1.08c1-.57,2-1.09,3-1.58s1.88-.86,2.84-1.23c.71-.27,1.43-.53,2.16-.76s1.6-.48,2.42-.67c.62-.14,1.25-.26,1.87-.37.41-.07.82-.12,1.23-.16L48,1C48.8,1,49.61,1,50.42,1c.41,0,.83,0,1.25.09.26,0,.52.07.78.09C52.47,1.18,52.49,1.18,52.5,1.22Z" style="fill:#fff;opacity:0.98"/><path d="M18,12.26a6.32,6.32,0,0,1,0,.84,11.57,11.57,0,0,1-.11,1.17c-.06.46-.12.93-.19,1.39s-.13.84-.2,1.25-.15,1-.25,1.47-.13.75-.19,1.13-.11.58-.16.87-.15.82-.24,1.23c-.12.6-.22,1.2-.36,1.8a8.41,8.41,0,0,0-.15.85,2.22,2.22,0,0,0,.14.76,4.85,4.85,0,0,1,.11.49.5.5,0,0,1-.28.53c-.73.34-1.46.66-2.21.95s-1.25.47-1.89.68a12.22,12.22,0,0,1-1.58.41,3,3,0,0,1-.67.06c-.06,0-.09,0-.09-.08a5.21,5.21,0,0,0-.43-1.94,14.67,14.67,0,0,0-.83-1.8c-.27-.53-.56-1-.86-1.55-.47-.82-1-1.63-1.48-2.43S5.1,18.8,4.61,18s-.82-1.28-1.22-1.93-.74-1.2-1.1-1.8c-.48-.84-.95-1.67-1.37-2.54A11.51,11.51,0,0,1,.13,9.64,3.47,3.47,0,0,1,0,8.32a1.88,1.88,0,0,1,.5-1.16A1.66,1.66,0,0,0,1,5.91C1,5.54,1,5.18.91,4.82a2.65,2.65,0,0,1,.21-1.39,2.33,2.33,0,0,1,.36-.56,1.42,1.42,0,0,1,1-.46A2.62,2.62,0,0,1,4,2.87,7.39,7.39,0,0,1,5.59,4.26,17.1,17.1,0,0,1,7.44,6.73a16.55,16.55,0,0,1,1.07,2,16.09,16.09,0,0,1,.59,1.5l.84,2.32,1.11,3c.22.61.45,1.22.67,1.82,0,0,0,.11.08.11s0-.06.07-.09c.19-.36.29-.74.44-1.1s.42-.92.66-1.37c.47-.88,1-1.7,1.57-2.53a7.65,7.65,0,0,1,1.12-1.35,2.34,2.34,0,0,1,1-.57,1.15,1.15,0,0,1,1.06.26,1,1,0,0,1,.25.54A4.19,4.19,0,0,1,18,12.26Z" style="fill:#fff;opacity:0.98"/><path d="M18.89,8.42a4.21,4.21,0,1,1,4.21-4A4.2,4.2,0,0,1,18.89,8.42Z" style="fill:#fff;opacity:0.98"/></svg>